<svg viewBox="0 0 100 100" xmlns="http://www.w3.org/2000/svg">
  <defs>
    <linearGradient id="g" x1="0" y1="0" x2="1" y2="1">
      <stop offset="0%" stop-color="#66BB6A"/>
      <stop offset="100%" stop-color="#2E7D32"/>
    </linearGradient>
  </defs>
  <path d="M50 5L12 22v28c0 23 16 44 38 50 22-6 38-27 38-50V22L50 5z" fill="url(#g)" opacity="0.15"/>
  <path d="M50 5L12 22v28c0 23 16 44 38 50 22-6 38-27 38-50V22L50 5zm0 9l29 13v24c0 19-12 36-29 41-17-5-29-22-29-41V27L50 14z" fill="url(#g)"/>
  <circle cx="50" cy="48" r="15" fill="none" stroke="url(#g)" stroke-width="3"/>
  <rect x="47" y="42" width="6" height="10" rx="1.5" fill="url(#g)"/>
  <rect x="41" y="52" width="18" height="12" rx="3" fill="url(#g)"/>
</svg>
